<svg width="243px" height="50px" viewBox="0 0 243 50" version="1.1" xmlns="http://www.w3.org/2000/svg" xmlns:xlink="http://www.w3.org/1999/xlink">
    <title>Central Community College of Nebraska</title>
    <defs>
        <polygon id="path-1" points="0.06 0.279 102.983 0.279 102.983 24.9998036 0.06 24.9998036"></polygon>
    </defs>
    <g id="Symbols" stroke="none" stroke-width="1" fill="none" fill-rule="evenodd">
        <g id="logo/College_EPS_WHITE">
            <g id="College_EPS_WHITE">
                <g id="Group-3" transform="translate(0.000000, 25.000000)">
                    <mask id="mask-2" fill="white">
                        <use xlink:href="#path-1"></use>
                    </mask>
                    <g id="Clip-2"></g>
                    <path d="M79.751,21.859 C83.706,21.859 87.572,21.789 91.318,21.65 C98.261,21.557 101.861,21.793 102.785,22.181 L102.983,22.497 C101.869,23.833 78.519,26.081 50.588,24.4 C20.965,22.151 0,16.544 0,9.986 C0,6.312 6.579,2.935 17.576,0.279 L17.577,9.783 C17.577,16.453 45.413,21.859 79.751,21.859" id="Fill-1" fill="#FFFFFE" mask="url(#mask-2)"></path>
                </g>
                <path d="M35.904,10.262 C35.904,7.51 42.575,5.061 52.947,3.492 L52.938,10.13 C52.938,13.035 65.061,15.389 80.015,15.389 C80.878,15.389 81.732,15.382 82.575,15.365 C89.558,15.98 80.165,19.325 59.404,17.784 C45.424,16.403 35.904,13.548 35.904,10.262" id="Fill-4" fill="#FFFFFE"></path>
                <path d="M93.847,30.961 C93.711,32.144 80.839,34.042 54.782,32.948 C33.021,31.068 17.848,26.833 17.848,21.908 C17.848,18.615 24.631,15.631 35.632,13.452 L35.632,21.718 C35.632,26.456 55.396,30.294 79.777,30.294 C82.76,30.294 85.671,30.236 88.49,30.127 C91.468,30.158 93.21,30.399 93.703,30.733 L93.847,30.961" id="Fill-5" fill="#FFFFFE"></path>
                <path d="M130.279,13.124 C125.902,14.359 123.218,15.096 119.242,15.096 C112.902,15.096 108.388,12.809 108.388,9.604 C108.388,6.423 112.945,4.163 119.421,4.163 C123.171,4.163 126.568,4.898 129.921,6.003 L129.921,2.008 C126.927,0.957 123.128,0.432 118.885,0.432 C107.226,0.432 100.57,4.898 100.57,9.681 C100.57,14.306 106.467,18.827 118.304,18.827 C122.818,18.827 126.033,18.328 130.279,17.038 L130.279,13.124" id="Fill-6" fill="#FFFFFE"></path>
                <path d="M138.267,11.152 C138.537,9.471 140.193,8.499 142.736,8.499 C145.238,8.499 146.937,9.498 147.203,11.152 L138.267,11.152 Z M152.564,14.831 C149.527,16.121 147.519,16.567 144.925,16.567 C140.859,16.567 138.357,15.306 138.134,13.151 L152.921,13.151 C153.234,8.735 148.275,6.239 142.291,6.239 C135.947,6.239 131.433,8.867 131.433,12.573 C131.433,16.357 136.123,18.827 143.363,18.827 C144.968,18.827 148.857,18.827 152.564,17.223 L152.564,14.831 Z" id="Fill-7" fill="#FFFFFE"></path>
                <path d="M160.908,6.475 L154.429,6.475 L154.429,18.591 L160.908,18.591 L160.908,10.786 C162.605,9.289 163.81,8.789 165.423,8.789 C167.255,8.789 168.636,9.498 168.636,11.206 L168.636,18.591 L175.117,18.591 L175.117,10.891 C175.117,7.316 170.824,6.239 167.611,6.239 C164.976,6.239 162.964,6.817 160.908,8.211 L160.908,6.475" id="Fill-8" fill="#FFFFFE"></path>
                <path d="M193.017,6.475 L185.515,6.475 L185.515,2.665 L184.708,2.665 L176.085,8.342 L176.085,9.078 L179.033,9.078 L179.033,14.28 C179.033,17.67 182.74,18.827 187.029,18.827 C189.039,18.827 190.736,18.617 193.017,18.065 L193.017,15.306 C191.275,15.831 190.023,16.015 188.681,16.015 C186.673,16.015 185.515,15.253 185.515,14.07 L185.515,9.078 L193.017,9.078 L193.017,6.475" id="Fill-9" fill="#FFFFFE"></path>
                <path d="M201.22,6.475 L194.744,6.475 L194.744,18.591 L201.22,18.591 L201.22,13.36 C202.648,11.126 204.167,9.812 206.535,9.812 C207.564,9.812 208.677,10.077 210.378,10.707 L212.164,7.343 C210.285,6.528 209.173,6.239 207.875,6.239 C205.373,6.239 203.228,7.422 201.306,9.945 L201.22,9.945 L201.22,6.475" id="Fill-10" fill="#FFFFFE"></path>
                <path d="M225.162,15.646 C224.089,16.225 222.794,16.567 221.587,16.567 C220.425,16.567 219.488,15.988 219.488,15.28 C219.488,14.07 221.318,13.545 225.162,12.729 L225.162,15.646 Z M235.169,15.594 C233.65,16.225 233.158,16.278 232.708,16.278 C232.042,16.278 231.636,16.041 231.636,15.437 L231.636,9.918 C231.636,7.264 228.109,6.239 222.931,6.239 C219.667,6.239 216.675,6.738 213.992,7.71 L213.992,10.812 C216.05,9.576 218.998,8.789 221.587,8.789 C224.402,8.789 225.298,9.681 225.162,10.812 C216.539,12.386 212.919,12.966 212.919,15.857 C212.919,17.382 215.376,18.827 218.685,18.827 C220.916,18.827 222.974,18.458 225.474,17.46 C225.925,18.433 226.947,18.827 229.091,18.827 C230.837,18.827 233.38,18.353 235.169,17.723 L235.169,15.594 Z" id="Fill-11" fill="#FFFFFE"></path>
                <polygon id="Fill-12" fill="#FFFFFE" points="236.179 18.591 242.66 18.591 242.66 0.668 236.179 0.668"></polygon>
                <path d="M170.568,41.502 C171.644,41.502 172.636,41.726 173.666,42.035 L173.666,43.142 C172.617,42.706 171.691,42.455 170.552,42.455 C168.541,42.455 167.082,43.476 167.082,44.818 C167.082,46.186 168.486,47.162 170.609,47.162 C171.705,47.162 172.769,46.871 173.759,46.414 L173.759,47.539 C172.642,47.955 171.697,48.115 170.492,48.115 C167.148,48.115 165.652,46.273 165.652,44.9 C165.652,42.918 167.738,41.502 170.568,41.502" id="Fill-13" fill="#FFFFFE"></path>
                <path d="M183.39,42.455 C181.427,42.455 180.005,43.465 180.005,44.808 C180.005,46.141 181.427,47.162 183.39,47.162 C185.365,47.162 186.787,46.141 186.787,44.808 C186.787,43.465 185.365,42.455 183.39,42.455 Z M183.363,48.115 C180.453,48.115 178.574,46.574 178.574,44.808 C178.574,43.004 180.505,41.502 183.39,41.502 C186.324,41.502 188.214,42.995 188.214,44.808 C188.214,46.565 186.38,48.115 183.363,48.115 Z" id="Fill-14" fill="#FFFFFE"></path>
                <polyline id="Fill-15" fill="#FFFFFE" points="193.414 41.586 194.806 41.586 194.806 47.098 198.806 47.098 198.806 48.032 193.414 48.032 193.414 41.586"></polyline>
                <polyline id="Fill-16" fill="#FFFFFE" points="203.548 41.586 204.941 41.586 204.941 47.098 208.939 47.098 208.939 48.032 203.548 48.032 203.548 41.586"></polyline>
                <polyline id="Fill-17" fill="#FFFFFE" points="213.695 41.586 218.841 41.586 218.841 42.519 215.087 42.519 215.087 44.313 218.714 44.313 218.714 45.247 215.087 45.247 215.087 47.098 218.957 47.098 218.957 48.032 213.695 48.032 213.695 41.586"></polyline>
                <path d="M228.751,44.795 L231.845,44.795 L231.845,47.579 C230.634,47.96 229.677,48.115 228.412,48.115 C225.687,48.115 223.636,46.754 223.636,44.846 C223.636,42.929 225.734,41.502 228.449,41.502 C229.673,41.502 230.47,41.696 231.666,42.053 L231.666,43.105 C230.611,42.689 229.558,42.455 228.421,42.455 C226.517,42.455 225.066,43.494 225.066,44.818 C225.066,46.176 226.498,47.162 228.591,47.162 C229.255,47.162 229.861,47.056 230.453,46.924 L230.453,45.73 L228.751,45.73 L228.751,44.795" id="Fill-18" fill="#FFFFFE"></path>
                <polyline id="Fill-19" fill="#FFFFFE" points="237.341 41.586 242.49 41.586 242.49 42.519 238.736 42.519 238.736 44.313 242.359 44.313 242.359 45.247 238.736 45.247 238.736 47.098 242.605 47.098 242.605 48.032 237.341 48.032 237.341 41.586"></polyline>
                <path d="M141.408,28.23 C142.484,28.23 143.476,28.456 144.509,28.765 L144.509,29.871 C143.458,29.434 142.533,29.184 141.394,29.184 C139.376,29.184 137.921,30.205 137.921,31.545 C137.921,32.913 139.326,33.889 141.449,33.889 C142.546,33.889 143.609,33.601 144.595,33.141 L144.595,34.269 C143.486,34.684 142.533,34.843 141.332,34.843 C137.984,34.843 136.49,32.999 136.49,31.63 C136.49,29.649 138.58,28.23 141.408,28.23" id="Fill-20" fill="#FFFFFE"></path>
                <path d="M154.23,29.184 C152.267,29.184 150.845,30.194 150.845,31.537 C150.845,32.869 152.267,33.889 154.23,33.889 C156.205,33.889 157.626,32.869 157.626,31.537 C157.626,30.194 156.205,29.184 154.23,29.184 Z M154.203,34.843 C151.292,34.843 149.414,33.301 149.414,31.537 C149.414,29.734 151.345,28.23 154.23,28.23 C157.164,28.23 159.056,29.725 159.056,31.537 C159.056,33.292 157.216,34.843 154.203,34.843 Z" id="Fill-21" fill="#FFFFFE"></path>
                <polyline id="Fill-22" fill="#FFFFFE" points="165.66 30.736 164.664 34.758 163.425 34.758 165.25 28.1 168.25 33.009 171.244 28.1 173.072 34.758 171.833 34.758 170.812 30.624 170.894 30.642 168.25 34.943 165.66 30.736"></polyline>
                <polyline id="Fill-23" fill="#FFFFFE" points="178.773 30.736 177.779 34.758 176.537 34.758 178.365 28.1 181.361 33.009 184.359 28.1 186.187 34.758 184.949 34.758 183.925 30.624 184.009 30.642 181.361 34.943 178.773 30.736"></polyline>
                <path d="M196.664,28.313 L198.056,28.313 L198.056,32.212 C198.056,33.814 196.708,34.843 194.064,34.843 C192.189,34.843 190.314,34.09 190.314,32.308 L190.314,28.313 L191.705,28.313 L191.705,32.111 C191.705,32.814 191.832,33.089 192.212,33.361 C192.708,33.715 193.333,33.889 194.089,33.889 C195.056,33.889 195.746,33.667 196.132,33.392 C196.562,33.081 196.664,32.643 196.664,32.056 L196.664,28.313" id="Fill-24" fill="#FFFFFE"></path>
                <polyline id="Fill-25" fill="#FFFFFE" points="210.462 28.313 211.773 28.313 211.773 34.758 210.601 34.758 204.761 29.955 204.761 34.758 203.449 34.758 203.449 28.313 204.541 28.313 210.462 33.146 210.462 28.313"></polyline>
                <polygon id="Fill-26" fill="#FFFFFE" points="217.386 34.758 218.775 34.758 218.775 28.313 217.386 28.313"></polygon>
                <polyline id="Fill-27" fill="#FFFFFE" points="223.636 28.313 231.156 28.313 231.156 29.248 228.093 29.248 228.093 34.758 226.701 34.758 226.701 29.248 223.636 29.248 223.636 28.313"></polyline>
                <polyline id="Fill-28" fill="#FFFFFE" points="236.642 28.313 238.996 30.472 241.375 28.313 243.082 28.313 239.703 31.386 239.703 34.758 238.314 34.758 238.314 31.378 234.929 28.313 236.642 28.313"></polyline>
            </g>
        </g>
    </g>
</svg>
